HIERARCHY
ROOT Hips
{
	OFFSET 0.000000 0.000000 0.000000
	CHANNELS 6 Xposition Yposition Zposition Zrotation Yrotation Xrotation 
	JOINT LHipJoint
	{
		OFFSET 0.000000 0.000000 0.000000
		CHANNELS 3 Zrotation Yrotation Xrotation
		JOINT LeftUpLeg
		{
			OFFSET 1.363060 -1.794630 0.839290
			CHANNELS 3 Zrotation Yrotation Xrotation
			JOINT LeftLeg
			{
				OFFSET 2.448110 -6.726130 0.000000
				CHANNELS 3 Zrotation Yrotation Xrotation
				JOINT LeftFoot
				{
					OFFSET 2.562200 -7.039590 0.000000
					CHANNELS 3 Zrotation Yrotation Xrotation
					JOINT LeftToeBase
					{
						OFFSET 0.157640 -0.433110 2.322550
						CHANNELS 3 Zrotation Yrotation Xrotation
						End Site
						{
							OFFSET 0.000000 0.000000 0.000000
						}
					}
				}
			}
		}
	}
	JOINT RHipJoint
	{
		OFFSET 0.000000 0.000000 0.000000
		CHANNELS 3 Zrotation Yrotation Xrotation
		JOINT RightUpLeg
		{
			OFFSET -1.305520 -1.794630 0.839290
			CHANNELS 3 Zrotation Yrotation Xrotation
			JOINT RightLeg
			{
				OFFSET -2.542530 -6.985550 0.000000
				CHANNELS 3 Zrotation Yrotation Xrotation
				JOINT RightFoot
				{
					OFFSET -2.568260 -7.056230 0.000000
					CHANNELS 3 Zrotation Yrotation Xrotation
					JOINT RightToeBase
					{
						OFFSET -0.164730 -0.452590 2.363150
						CHANNELS 3 Zrotation Yrotation Xrotation
						End Site
						{
							OFFSET 0.000000 0.000000 0.000000
						}
					}
				}
			}
		}
	}
}
MOTION
Frames: 19
Frame Time: 0.008333
-4.587604 17.361706 1.204753 104.658324 -82.595367 -95.632535 -9.326041 3.835111 2.498799 -20.946164 4.164834 -0.318320 -3.613102 -0.948396 0.834850 -0.242758 -1.798673 1.141519 0.045400 -0.000000 -30.186099 10.713216 0.405132 2.778299 -3.658072 -1.081146 -33.492856 0.123976 -1.930235 37.526096 -2.114029 -8.382389 -9.085525 -0.246400 -0.000000 -13.485500
-4.701324 17.360360 1.184388 106.660903 -82.486887 -97.644810 -9.288333 3.876077 2.328887 -20.874661 4.521118 0.254478 -3.612197 -0.917905 0.685767 -0.262958 -1.919241 1.537101 0.026100 0.000001 -31.405200 10.699658 0.462744 2.936073 -3.781666 -0.507047 -33.682535 0.193401 -1.789086 35.470337 -2.010016 -7.849585 -8.515204 -0.341999 0.000000 -14.012000
-4.815142 17.358024 1.163157 108.615231 -82.384413 -99.624526 -9.251435 3.913038 2.149747 -20.776918 4.879302 0.830912 -3.608426 -0.882572 0.582481 -0.282602 -2.050812 1.913350 0.003100 0.000000 -32.629400 10.684088 0.502772 3.081513 -3.868992 0.049449 -33.799146 0.278068 -1.645575 33.360618 -1.870548 -7.170667 -7.912942 -0.421500 -0.000000 -14.634000
-4.929491 17.354791 1.141214 110.491934 -82.287925 -101.540089 -9.215999 3.946306 1.966797 -20.654631 5.225803 1.410309 -3.601601 -0.842709 0.521974 -0.301743 -2.191851 2.276496 -0.023300 -0.000000 -33.876900 10.665321 0.527375 3.213969 -3.914928 0.575702 -33.845237 0.378911 -1.498306 31.201719 -1.701326 -6.369264 -7.298241 -0.478701 0.000000 -15.332400
-5.044938 17.350776 1.118629 112.273019 -82.197550 -103.370051 -9.182665 3.976790 1.786042 -20.509801 5.547925 1.992980 -3.591393 -0.798741 0.498231 -0.320269 -2.338418 2.636814 -0.052599 0.000000 -35.175300 10.642472 0.539014 3.333691 -3.914670 1.059857 -33.824628 0.495871 -1.345605 28.999234 -1.509410 -5.473917 -6.687861 -0.510200 -0.000000 -16.108600
-5.162027 17.346147 1.095573 113.949257 -82.114210 -105.100852 -9.152520 4.006061 1.612674 -20.343825 5.844063 2.569039 -3.578132 -0.750798 0.514417 -0.338815 -2.496262 2.997977 -0.086000 -0.000001 -36.517300 10.614922 0.540121 3.443349 -3.863406 1.493084 -33.747328 0.628195 -1.185579 26.761291 -1.302748 -4.515491 -6.100696 -0.515100 0.000000 -16.948899
-5.281097 17.341010 1.072235 115.530783 -82.037023 -106.742269 -9.125507 4.034342 1.450705 -20.161351 6.099542 3.148878 -3.560897 -0.699858 0.550872 -0.356056 -2.647758 3.377199 -0.121100 0.000000 -37.948400 10.582048 0.534359 3.541356 -3.757159 1.866224 -33.616311 0.774192 -1.016924 24.494458 -1.088444 -3.523214 -5.543743 -0.495600 0.000000 -17.935300
-5.402795 17.335566 1.048692 117.029630 -81.967295 -108.298672 -9.103115 4.064072 1.304168 -19.962393 6.325834 3.714105 -3.540456 -0.646174 0.616641 -0.372936 -2.804258 3.770904 -0.159800 -0.000000 -39.421800 10.543650 0.523172 3.633691 -3.592600 2.177094 -33.447793 0.932038 -0.837589 22.206947 -0.873945 -2.526090 -5.032937 -0.455100 -0.000001 -19.031900
-5.527411 17.329999 1.025102 118.471373 -81.904610 -109.793874 -9.085861 4.096218 1.175236 -19.749137 6.525491 4.261600 -3.516620 -0.590483 0.705396 -0.388872 -2.959345 4.183095 -0.201300 -0.000000 -40.929800 10.499437 0.508654 3.722828 -3.367488 2.425668 -33.251260 1.099367 -0.646291 19.905837 -0.664987 -1.548276 -4.574680 -0.398500 -0.000000 -20.252900
-5.655180 17.324434 1.001611 119.898302 -81.847610 -111.269788 -9.074194 4.130877 1.064301 -19.523931 6.696597 4.799324 -3.488462 -0.533800 0.799904 -0.402340 -3.095063 4.623768 -0.242900 -0.000000 -42.501800 10.448778 0.492691 3.808677 -3.080340 2.614900 -33.029295 1.273344 -0.442435 17.594530 -0.465678 -0.609921 -4.162366 -0.331601 0.000000 -21.682300
-5.786428 17.318995 0.978229 121.339364 -81.795955 -112.750585 -9.069301 4.169712 0.971747 -19.284970 6.857963 5.310060 -3.456661 -0.476484 0.910960 -0.413854 -3.220071 5.080292 -0.285700 0.000000 -44.074300 10.391554 0.475555 3.897608 -2.732300 2.754605 -32.795667 1.451716 -0.224978 15.281877 -0.279691 0.273822 -3.808473 -0.258700 0.000000 -23.187400
-5.921005 17.313729 0.955063 122.840200 -81.747667 -114.286447 -9.071474 4.211921 0.895154 -19.033532 7.010062 5.805543 -3.420201 -0.419210 1.022810 -0.421832 -3.316004 5.558939 -0.326300 0.000000 -45.682800 10.327066 0.458517 3.988145 -2.324641 2.854950 -32.546638 1.631386 0.005224 12.973445 -0.108588 1.092317 -3.500355 -0.184500 -0.000000 -24.805000
-6.059027 17.308651 0.931947 124.423735 -81.700845 -115.898762 -9.081171 4.258237 0.832699 -18.767433 7.168674 6.276048 -3.379587 -0.362074 1.145213 -0.426602 -3.388967 6.046208 -0.364900 0.000000 -47.277200 10.255417 0.441998 4.084148 -1.863213 2.930519 -32.288491 1.809869 0.247451 10.685203 0.046217 1.841030 -3.251782 -0.112100 -0.000001 -26.339701
-6.200444 17.303673 0.908692 126.093838 -81.651996 -117.589481 -9.096164 4.308166 0.783574 -18.492463 7.333660 6.718605 -3.335327 -0.305694 1.279288 -0.427619 -3.431956 6.533523 -0.399200 0.000000 -48.833600 10.178153 0.427070 4.187522 -1.359293 2.994756 -32.028952 1.983652 0.499091 8.439549 0.184322 2.519230 -3.067645 -0.043901 0.000000 -27.669400
-6.344556 17.298629 0.885698 127.917829 -81.602093 -119.450465 -9.121476 4.360638 0.736702 -18.192082 7.520129 7.175347 -3.284491 -0.247808 1.403757 -0.424318 -3.440449 7.051664 -0.429300 -0.000000 -50.551700 10.091817 0.414272 4.284761 -0.805520 3.056065 -31.726742 2.150995 0.754824 6.253097 0.307941 3.133990 -2.920784 0.019100 0.000000 -28.981000
-6.491720 17.293358 0.862113 129.812877 -81.545023 -121.380113 -9.149787 4.416217 0.697676 -17.884252 7.722107 7.608606 -3.230796 -0.189688 1.550810 -0.417965 -3.428147 7.562246 -0.455400 0.000000 -52.210200 10.002289 0.405017 4.386079 -0.230316 3.124737 -31.423771 2.308478 1.010494 4.180337 0.416622 3.697082 -2.864339 0.076101 0.000000 -29.822100
-6.641301 17.287602 0.838026 131.776035 -81.480612 -123.390581 -9.181562 4.473880 0.660591 -17.564232 7.941346 8.042114 -3.173194 -0.129658 1.712495 -0.408615 -3.396480 8.085405 -0.478500 -0.000001 -53.913500 9.909661 0.399919 4.481657 0.362650 3.201901 -31.103957 2.454668 1.258428 2.262732 0.513045 4.226032 -2.894547 0.127300 -0.000000 -30.296100
-6.792964 17.281141 0.813232 133.765454 -81.408397 -125.444127 -9.215245 4.533261 0.623796 -17.234077 8.175378 8.478779 -3.112159 -0.066607 1.896145 -0.397086 -3.356390 8.626602 -0.501200 0.000000 -55.671900 9.815749 0.398940 4.567379 0.961517 3.287776 -30.770998 2.588595 1.491179 0.551239 0.599135 4.739444 -3.027638 0.172900 -0.000000 -30.392400
-6.946526 17.273767 0.787651 135.745099 -81.329564 -127.505751 -9.250220 4.594161 0.585629 -16.893196 8.421474 8.922146 -3.047837 0.000607 2.107568 -0.384187 -3.320313 9.195405 -0.526800 0.000000 -57.497100 9.721726 0.400958 4.639364 1.555397 3.383780 -30.427412 2.710172 1.701613 -0.907870 0.676508 5.253059 -3.275259 0.211800 -0.000000 -30.150800
